<svg width="40" height="40" viewBox="0 0 40 40" fill="none" xmlns="http://www.w3.org/2000/svg">
<rect width="40" height="40" rx="20" fill="#CB79AF"/>
<path d="M18.2915 25.2442L15.9347 27.601C14.9577 28.578 13.3754 28.578 12.3991 27.6012C11.4227 26.6247 11.4227 25.0423 12.3989 24.066L17.1133 19.3516C18.0896 18.3753 19.672 18.3753 20.6483 19.3516C20.9737 19.677 21.5014 19.677 21.8269 19.3516C22.1523 19.0262 22.1523 18.4985 21.8269 18.173C20.1997 16.5458 17.5619 16.5458 15.9347 18.173L11.2204 22.8874C9.5932 24.5146 9.5932 27.1523 11.2204 28.7795C12.8474 30.4075 15.4853 30.4075 17.1134 28.7795L19.4701 26.4227C19.7956 26.0973 19.7956 25.5696 19.4701 25.2441C19.1447 24.9187 18.617 24.9187 18.2915 25.2442Z" fill="white"/>
<path d="M28.7797 11.2204C27.1525 9.5932 24.5139 9.5932 22.8867 11.2204L20.0591 14.048C19.7336 14.3735 19.7336 14.9011 20.0591 15.2266C20.3845 15.552 20.9122 15.552 21.2377 15.2266L24.0653 12.399C25.0415 11.4227 26.6248 11.4227 27.6011 12.399C28.5774 13.3752 28.5774 14.9577 27.6011 15.9339L22.4159 21.1192C21.4396 22.0955 19.8572 22.0955 18.8809 21.1192C18.5555 20.7938 18.0278 20.7938 17.7023 21.1192C17.3769 21.4447 17.3769 21.9723 17.7023 22.2978C19.3295 23.925 21.9673 23.925 23.5944 22.2978L28.7797 17.1125C30.4069 15.4854 30.4069 12.8476 28.7797 11.2204Z" fill="white"/>
</svg>
